_states
version=1
nRows=20
nColumns=17
inDegrees=yes

# SIMM Motion File Header:
name _states
datacolumns 17
datarows 20
otherdata 1
range 0.50851791 0.57492805
endheader
time	/jointset/r_shoulder/r_shoulder_elev/value	/jointset/r_shoulder/r_shoulder_elev/speed	/jointset/r_elbow/r_elbow_flex/value	/jointset/r_elbow/r_elbow_flex/speed	/forceset/TRIlong/activation	/forceset/TRIlong/fiber_length	/forceset/TRIlat/activation	/forceset/TRIlat/fiber_length	/forceset/TRImed/activation	/forceset/TRImed/fiber_length	/forceset/BIClong/activation	/forceset/BIClong/fiber_length	/forceset/BICshort/activation	/forceset/BICshort/fiber_length	/forceset/BRA/activation	/forceset/BRA/fiber_length
      0.50851791	     -6.83953966	      3.78338454	     71.57353023	     69.66418270	      0.01005988	      0.15948955	      0.04757964	      0.09755438	      0.04538725	      0.09257981	      0.23076598	      0.11491086	      0.02162167	      0.11418411	      0.01020303	      0.07558062
      0.51157313	     -6.82889659	      3.18394952	     71.78619597	     69.54758866	      0.01005785	      0.15956322	      0.04814702	      0.09762005	      0.04594037	      0.09264567	      0.23115604	      0.11473586	      0.02146008	      0.11401961	      0.01020028	      0.07550829
      0.51462836	     -6.82008501	      2.58409904	     71.99847353	     69.40890937	      0.01005589	      0.15963949	      0.04870108	      0.09768560	      0.04647994	      0.09271143	      0.23156659	      0.11456143	      0.02129339	      0.11385554	      0.01019743	      0.07543592
      0.51768359	     -6.81310571	      1.98473847	     72.21030200	     69.25527159	      0.01005401	      0.15971109	      0.04924820	      0.09775112	      0.04701245	      0.09277717	      0.23199142	      0.11438758	      0.02112190	      0.11369200	      0.01019448	      0.07536353
      0.52073882	     -6.80795876	      1.38430148	     72.42163663	     69.08509284	      0.01005220	      0.15978434	      0.04979980	      0.09781658	      0.04754944	      0.09284286	      0.23242660	      0.11421435	      0.02094668	      0.11352908	      0.01019150	      0.07529112
      0.52379404	     -6.80464720	      0.78341060	     72.63243330	     68.90415492	      0.01005045	      0.15985407	      0.05035628	      0.09788193	      0.04809131	      0.09290843	      0.23286912	      0.11404179	      0.02076816	      0.11336682	      0.01018850	      0.07521873
      0.52756310	     -6.80309405	      0.04020857	     72.89169217	     68.66475943	      0.01004839	      0.15994102	      0.05105218	      0.09796234	      0.04876907	      0.09298911	      0.23342517	      0.11382987	      0.02054355	      0.11316762	      0.01018478	      0.07512947
      0.53075850	     -6.80397325	     -0.59052216	     73.11076697	     68.45318573	      0.01004672	      0.16001014	      0.05165823	      0.09803029	      0.04935950	      0.09305727	      0.23390945	      0.11365111	      0.02034947	      0.11299962	      0.01018162	      0.07505383
      0.53395390	     -6.80687005	     -1.22286287	     73.32914928	     68.23038044	      0.01004511	      0.16008102	      0.05227388	      0.09809798	      0.04995935	      0.09312519	      0.23440230	      0.11347319	      0.02015222	      0.11283246	      0.01017846	      0.07497825
      0.53714930	     -6.81178836	     -1.85553978	     73.54680802	     68.00114551	      0.01004357	      0.16014811	      0.05290974	      0.09816541	      0.05057898	      0.09319284	      0.23490567	      0.11329618	      0.01995280	      0.11266618	      0.01017531	      0.07490274
      0.54101061	     -6.82043057	     -2.62103365	     73.80882702	     67.71153348	      0.01004178	      0.16022968	      0.05370178	      0.09824645	      0.05135086	      0.09327417	      0.23552626	      0.11308351	      0.01970966	      0.11246642	      0.01017154	      0.07481162
      0.54487191	     -6.83202823	     -3.38565149	     74.06970578	     67.41283737	      0.01004008	      0.16030576	      0.05450587	      0.09832707	      0.05213466	      0.09335507	      0.23616064	      0.11287225	      0.01946250	      0.11226800	      0.01016776	      0.07472063
      0.54807990	     -6.84390887	     -4.02132494	     74.28555220	     67.15346603	      0.01003872	      0.16037122	      0.05517673	      0.09839377	      0.05278886	      0.09342201	      0.23670036	      0.11269784	      0.01925198	      0.11210423	      0.01016458	      0.07464515
      0.55128789	     -6.85782730	     -4.65589812	     74.50055927	     66.89051501	      0.01003742	      0.16043204	      0.05585065	      0.09846025	      0.05344618	      0.09348873	      0.23724883	      0.11252447	      0.01903689	      0.11194147	      0.01016134	      0.07456980
      0.55518304	     -6.87746285	     -5.42612334	     74.76047301	     66.56305214	      0.01003591	      0.16050596	      0.05669126	      0.09854060	      0.05426632	      0.09356937	      0.23793416	      0.11231539	      0.01876994	      0.11174528	      0.01015739	      0.07447849
      0.55922746	     -6.90102273	     -6.22395993	     75.02898400	     66.21776173	      0.01003442	      0.16057846	      0.05758267	      0.09862356	      0.05513611	      0.09365263	      0.23866262	      0.11209998	      0.01848648	      0.11154326	      0.01015326	      0.07438390
      0.56327187	     -6.92780553	     -7.02024172	     75.29608378	     65.86342721	      0.01003299	      0.16065146	      0.05850054	      0.09870600	      0.05603184	      0.09373538	      0.23940363	      0.11188633	      0.01819847	      0.11134298	      0.01014917	      0.07428954
      0.56731629	     -6.95780209	     -7.81237744	     75.56173884	     65.50556761	      0.01003164	      0.16071818	      0.05943931	      0.09878791	      0.05694804	      0.09381760	      0.24015301	      0.11167450	      0.01790698	      0.11114444	      0.01014513	      0.07419544
      0.57136071	     -6.99099519	     -8.60153501	     75.82592881	     65.13622127	      0.01003035	      0.16078721	      0.06040414	      0.09886928	      0.05788977	      0.09389928	      0.24090405	      0.11146455	      0.01761431	      0.11094766	      0.01014117	      0.07410162
      0.57492805	     -7.02291333	     -9.29226869	     76.05770656	     64.80722704	      0.01002927	      0.16084205	      0.06127278	      0.09894059	      0.05873768	      0.09397088	      0.24156578	      0.11128097	      0.01735627	      0.11077552	      0.01013775	      0.07401909
